<svg xmlns="http://www.w3.org/2000/svg" enable-background="new 0 0 512 512" viewBox="0 0 512 512" id="microphone">
  <g>
    <g>
      <linearGradient id="a" x1="284.966" x2="226.578" y1="-205.851" y2="880.166" gradientUnits="userSpaceOnUse">
        <stop offset="0" stop-color="#eae9fe"></stop>
        <stop offset=".424" stop-color="#eeeefe"></stop>
        <stop offset=".897" stop-color="#fbfbff"></stop>
        <stop offset="1" stop-color="#fff"></stop>
      </linearGradient>
      <path fill="url(#a)" d="M468.836,264.275c-9.501-7.393-20.976-13.763-25.395-24.961
			c-6.01-15.229,3.596-31.571,9.261-46.931c17.297-46.899-4.903-102.439-44.732-132.645
			c-75.982-57.623-224.302-37.425-245.028,42.219c-8.768,33.692,6.941,72.131-9.131,103.013
			c-20.278,38.966-74.073,41.594-108.719,58.921C2.169,285.358-6.419,332.1,24.365,367.686
			c11.304,13.068,25.769,22.07,36.136,36.348c15.001,20.659,23.415,43.504,43.486,60.545c28.263,23.996,75.517,29.946,100.538,2.586
			c14.089-15.407,18.674-38.106,34.054-52.225c20.245-18.586,52.242-16.086,78.004-6.514c25.762,9.571,49.654,25.026,76.789,29.381
			c42.426,6.81,87.917-18.085,105.053-57.489S502.748,290.664,468.836,264.275z"></path>
      <rect width="35.832" height="60.342" x="239.72" y="370.892" fill="#ededed"></rect>
      <rect width="31.193" height="35.832" x="329.927" y="213.517" fill="#386e93"></rect>
      <rect width="31.337" height="35.832" x="154.153" y="213.517" fill="#386e93"></rect>
      <path fill="#ff5859" d="M396.953 191.157v65.501c0 76.825-62.349 139.317-139.173 139.317s-139.459-62.491-139.459-139.317v-65.501c0-9.89 8.026-17.916 17.916-17.916s17.916 8.026 17.916 17.916v65.501c0 57.046 46.439 103.484 103.483 103.484s103.484-46.439 103.484-103.484v-65.501c0-9.89 8.026-17.916 17.916-17.916C388.927 173.241 396.953 181.268 396.953 191.157zM328.441 449.15c0 9.89-8.026 17.916-17.916 17.916H204.891c-9.89 0-17.916-8.026-17.916-17.916s8.026-17.916 17.916-17.916h105.634C320.415 431.234 328.441 439.261 328.441 449.15z"></path>
      <path fill="#ededed" d="M257.609,334.111c-42.704,0-77.444-34.741-77.444-77.444V125.645
			c0-42.703,34.741-77.444,77.444-77.444c42.738,0,77.508,34.741,77.508,77.444v131.022
			C335.117,299.371,300.348,334.111,257.609,334.111z"></path>
      <path fill="#386e93" d="M335.118 125.644v24.514h-37.454c-7.868 0-14.175-6.373-14.175-14.24 0-3.902 1.561-7.478 4.162-10.079 2.536-2.536 6.112-4.162 10.013-4.162h37.324C335.053 122.978 335.118 124.343 335.118 125.644zM335.118 176.948v28.415h-37.454c-7.868 0-14.175-6.307-14.175-14.175v-.065c0-7.803 6.307-14.175 14.175-14.175H335.118zM335.118 232.218v24.449c0 1.365-.065 2.666-.13 3.966h-37.324c-7.868 0-14.175-6.372-14.175-14.24 0-3.966 1.561-7.478 4.162-10.014 2.536-2.601 6.112-4.162 10.013-4.162H335.118zM231.795 135.918c0 7.868-6.307 14.24-14.175 14.24h-37.454v-24.514c0-1.301.065-2.666.13-3.966h37.323c3.967 0 7.478 1.626 10.014 4.162C230.235 128.44 231.795 132.016 231.795 135.918zM231.795 191.123v.065c0 7.868-6.307 14.175-14.175 14.175h-37.454v-28.415h37.454C225.488 176.948 231.795 183.32 231.795 191.123zM231.795 246.393c0 7.868-6.307 14.24-14.175 14.24h-37.323c-.065-1.301-.13-2.601-.13-3.966v-24.449h37.454c3.967 0 7.478 1.561 10.014 4.162C230.235 238.915 231.795 242.427 231.795 246.393z"></path>
      <path fill="#332e8e" d="M235.552,398.418v28.649h-30.66c-12.178,0-22.084,9.907-22.084,22.084
			c0,12.176,9.907,22.083,22.084,22.083h105.633c12.178,0,22.084-9.907,22.084-22.083c0-12.178-9.907-22.084-22.084-22.084H279.72
			v-28.605c68.661-10.602,121.401-70.152,121.401-141.804v-65.501c0-12.176-9.907-22.083-22.084-22.083s-22.084,9.907-22.084,22.083
			v18.192h-17.668c0.001-29.202,0.001-31.994,0.001-32.401c0-0.005-0.001-0.009-0.001-0.013v-26.764
			c0-0.005,0.001-0.009,0.001-0.013v-24.514c0-0.064-0.006-0.131-0.006-0.196c-0.108-44.911-36.701-81.415-81.671-81.415
			c-45.001,0-81.612,36.61-81.612,81.612v83.704h-17.676v-18.192c0-12.176-9.907-22.083-22.084-22.083
			c-12.178,0-22.084,9.907-22.084,22.083v65.501C114.152,328.225,166.873,387.712,235.552,398.418z M324.274,449.151
			c0,7.58-6.168,13.747-13.749,13.747H204.892c-7.581,0-13.749-6.168-13.749-13.747c0-7.581,6.168-13.749,13.749-13.749
			c37.662,0,67.511,0,105.633,0C318.107,435.402,324.274,441.57,324.274,449.151z M271.385,427.067h-27.497V399.46
			c4.574,0.441,9.205,0.683,13.893,0.683c4.59,0,9.124-0.239,13.605-0.663V427.067z M158.321,253.517h17.676v3.15
			c0,45.001,36.61,81.612,81.612,81.612c45.009,0,81.677-36.593,81.677-81.613v-3.149h17.667v3.141
			c0,54.763-44.554,99.317-99.317,99.317s-99.315-44.554-99.315-99.317V253.517z M330.949,145.99h-33.285
			c-5.518,0-10.007-4.518-10.007-10.072c0-5.692,4.611-10.072,10.007-10.072h33.285V145.99z M330.949,201.195h-33.285
			c-5.611,0-10.007-4.396-10.007-10.072c0-5.518,4.489-10.007,10.007-10.007h33.285V201.195z M330.949,256.465h-33.285
			c-5.518,0-10.007-4.518-10.007-10.072c0-5.354,4.284-10.008,10.007-10.008h33.285V256.465z M356.953,217.684v27.497h-17.667
			c0-0.322-0.001-29.296-0.001-27.497H356.953z M257.609,52.369c37.687,0,68.813,28.552,72.877,65.142h-32.822
			c-9.979,0-18.342,8.091-18.342,18.408c0,10.149,8.228,18.408,18.342,18.408h33.285v18.455h-33.285
			c-10.114,0-18.342,8.228-18.342,18.408c0,10.114,8.228,18.342,18.342,18.342h33.285v18.519h-33.285
			c-9.946,0-18.342,7.996-18.342,18.344c0,10.149,8.228,18.408,18.342,18.408h32.823c-4.064,36.59-35.19,65.143-72.878,65.143
			c-37.655,0-68.754-28.553-72.814-65.143h32.826c10.114,0,18.342-8.258,18.342-18.408c0-10.332-8.338-18.344-18.342-18.344h-33.288
			v-18.519h33.288c10.114,0,18.342-8.228,18.342-18.342v-0.065c0-10.114-8.228-18.342-18.342-18.342h-33.288v-18.455h33.288
			c10.114,0,18.342-8.258,18.342-18.408c0-10.209-8.245-18.408-18.342-18.408h-32.826C188.856,80.921,219.955,52.369,257.609,52.369
			z M184.334,256.465v-20.08h33.286c5.368,0,10.007,4.298,10.007,10.008c0,5.554-4.489,10.072-10.007,10.072H184.334z
			 M184.334,201.195v-20.079h33.286c5.518,0,10.007,4.489,10.007,10.007v0.065c0,5.611-4.396,10.007-10.007,10.007H184.334z
			 M184.334,125.846h33.286c5.417,0,10.007,4.394,10.007,10.072c0,5.554-4.489,10.072-10.007,10.072h-33.286V125.846z
			 M175.997,217.684v27.497h-17.676v-27.497H175.997z M122.488,191.157c0-7.58,6.168-13.747,13.749-13.747
			c7.581,0,13.749,6.168,13.749,13.747c0,56.869,0,4.329,0,65.501c0,59.359,48.291,107.652,107.651,107.652
			s107.652-48.293,107.652-107.652c0-60.646,0-8.738,0-65.501c0-7.58,6.168-13.747,13.749-13.747
			c7.581,0,13.749,6.168,13.749,13.747v65.501c0,74.522-60.563,135.15-135.006,135.15c-74.6,0-135.292-60.628-135.292-135.15
			V191.157z"></path>
    </g>
  </g>
</svg>
