<svg xmlns="http://www.w3.org/2000/svg" enable-background="new 0 0 512 512" viewBox="0 0 512 512" id="compass">
  <g display="none">
    <line x1="56" x2="72" y1="448" y2="424" fill="none" stroke="#000" stroke-linecap="round" stroke-linejoin="round" stroke-miterlimit="10" stroke-width="16"></line>
    <line x1="456" x2="440" y1="448" y2="424" fill="none" stroke="#000" stroke-linecap="round" stroke-linejoin="round" stroke-miterlimit="10" stroke-width="16"></line>
    <line x1="160" x2="352" y1="288" y2="288" fill="none" stroke="#000" stroke-linecap="round" stroke-linejoin="round" stroke-miterlimit="10" stroke-width="16"></line>
    <path fill="none" stroke="#000" stroke-linecap="round" stroke-linejoin="round" stroke-miterlimit="10" stroke-width="16" d="
		M377.4,328c-26.5,38.6-71,64-121.4,64s-94.9-25.4-121.4-64"></path>
    <path fill="#C4C2C2" stroke="#000" stroke-linecap="round" stroke-linejoin="round" stroke-miterlimit="10" stroke-width="16" d="M69.5 429.7L69.5 429.7c-10.6-6.6-13.9-20.5-7.3-31.2l155.3-249.8 38.4 23.9L100.7 422.4C94.1 433.1 80.2 436.3 69.5 429.7zM442.5 429.7L442.5 429.7c10.6-6.6 13.9-20.5 7.3-31.2L294.4 148.7 256 172.6l155.3 249.8C417.9 433.1 431.8 436.3 442.5 429.7zM280 88h-48V48c0-13.3 10.7-24 24-24l0 0c13.3 0 24 10.7 24 24V88z"></path>
    <path fill="#C4C2C2" stroke="#000" stroke-linecap="round" stroke-linejoin="round" stroke-miterlimit="10" stroke-width="16" d="
		M256,216L256,216c-30.9,0-56-25.1-56-56V88h112v72C312,190.9,286.9,216,256,216z"></path>
    <circle cx="256" cy="152" r="24" fill="#C4C2C2" stroke="#000" stroke-linecap="round" stroke-linejoin="round" stroke-miterlimit="10" stroke-width="16"></circle>
    <path fill="#C4C2C2" stroke="#000" stroke-linecap="round" stroke-linejoin="round" stroke-miterlimit="10" stroke-width="16" d="
		M256,312L256,312c-8.8,0-16-7.2-16-16v-16c0-8.8,7.2-16,16-16l0,0c8.8,0,16,7.2,16,16v16C272,304.8,264.8,312,256,312z"></path>
    <circle cx="440" cy="352" r="24" fill="#C4C2C2" stroke="#000" stroke-linecap="round" stroke-linejoin="round" stroke-miterlimit="10" stroke-width="16"></circle>
    <rect width="288" height="64" x="112" y="432" fill="#C4C2C2" stroke="#000" stroke-linecap="round" stroke-linejoin="round" stroke-miterlimit="10" stroke-width="16"></rect>
    <line x1="144" x2="144" y1="496" y2="472" fill="#C4C2C2" stroke="#000" stroke-linecap="round" stroke-linejoin="round" stroke-miterlimit="10" stroke-width="16"></line>
    <line x1="208" x2="208" y1="496" y2="472" fill="#C4C2C2" stroke="#000" stroke-linecap="round" stroke-linejoin="round" stroke-miterlimit="10" stroke-width="16"></line>
    <line x1="336" x2="336" y1="496" y2="472" fill="#C4C2C2" stroke="#000" stroke-linecap="round" stroke-linejoin="round" stroke-miterlimit="10" stroke-width="16"></line>
    <line x1="368" x2="368" y1="496" y2="472" fill="#C4C2C2" stroke="#000" stroke-linecap="round" stroke-linejoin="round" stroke-miterlimit="10" stroke-width="16"></line>
    <line x1="240" x2="240" y1="496" y2="472" fill="#C4C2C2" stroke="#000" stroke-linecap="round" stroke-linejoin="round" stroke-miterlimit="10" stroke-width="16"></line>
    <line x1="272" x2="272" y1="496" y2="472" fill="#C4C2C2" stroke="#000" stroke-linecap="round" stroke-linejoin="round" stroke-miterlimit="10" stroke-width="16"></line>
    <line x1="176" x2="176" y1="496" y2="464" fill="#C4C2C2" stroke="#000" stroke-linecap="round" stroke-linejoin="round" stroke-miterlimit="10" stroke-width="16"></line>
    <line x1="304" x2="304" y1="496" y2="464" fill="#C4C2C2" stroke="#000" stroke-linecap="round" stroke-linejoin="round" stroke-miterlimit="10" stroke-width="16"></line>
  </g>
  <g display="none">
    <path d="M256,184c17.6,0,32-14.4,32-32s-14.4-32-32-32s-32,14.4-32,32S238.4,184,256,184z M256,136c8.8,0,16,7.2,16,16
			s-7.2,16-16,16s-16-7.2-16-16S247.2,136,256,136z"></path>
    <path d="M472,352c0-17.6-14.4-32-32-32c-9.2,0-17.4,3.9-23.3,10.1l-98.1-156.9c0.9-4.2,1.4-8.6,1.4-13.1V88c0-4.4-3.6-8-8-8h-24
			V48c0-17.6-14.4-32-32-32s-32,14.4-32,32v32h-24c-4.4,0-8,3.6-8,8v72c0,4.5,0.5,8.9,1.4,13.1L61.8,383.6c-3.1,5-4.8,10.7-4.8,16.6
			c0,8.3,3.4,16.3,9.1,22.1l-8.8,13.3c-2.5,3.7-1.5,8.6,2.2,11.1c1.4,0.9,2.9,1.3,4.4,1.3c2.6,0,5.1-1.3,6.7-3.6l9.4-14
			c2.8,0.8,5.6,1.2,8.3,1.2c10.5,0,20.6-5.2,26.6-14.7l36.1-57.7c28.7,26.5,65.6,40.9,105,40.9s76.3-14.5,105-40.9l36.1,57.7
			c5.9,9.5,16.1,14.7,26.6,14.7c2.8,0,5.6-0.4,8.3-1.2l9.3,14c1.5,2.3,4.1,3.6,6.7,3.6c1.5,0,3.1-0.4,4.4-1.3
			c3.7-2.5,4.7-7.4,2.2-11.1l-8.8-13.3c5.8-5.8,9.1-13.8,9.1-22.1c0-5.9-1.6-11.6-4.8-16.6l-0.7-1.1C462.5,378.5,472,366.3,472,352z
			 M240,48c0-8.8,7.2-16,16-16s16,7.2,16,16v32h-32V48z M208,96h24h48h24v64c0,26.5-21.5,48-48,48s-48-21.5-48-48V96z M248,280
			c0-4.4,3.6-8,8-8s8,3.6,8,8v16c0,4.4-3.6,8-8,8s-8-3.6-8-8V280z M256,256c-13.2,0-24,10.8-24,24h-31.6l36.8-58.8
			c5.9,1.8,12.3,2.8,18.8,2.8c6.5,0,12.9-1,18.8-2.8l36.8,58.8H280C280,266.8,269.2,256,256,256z M101.4,408.3
			c-4.3,6.9-13.3,9.3-20.6,5.2c-0.1-0.1-0.2-0.1-0.3-0.2c-4.7-2.8-7.4-7.7-7.4-13.2c0-2.9,0.8-5.7,2.3-8.1l125.2-200.2
			c5.3,9.2,12.9,17.1,22,22.6L101.4,408.3z M256,384c-36.4,0-70.3-13.7-96.3-38.7l30.8-49.3H232c0,13.2,10.8,24,24,24s24-10.8,24-24
			h41.6l30.8,49.3C326.3,370.3,292.4,384,256,384z M410.6,408.3L289.5,214.5c9.1-5.6,16.6-13.4,22-22.6l96.9,155.1
			c-0.3,1.6-0.4,3.3-0.4,5.1c0,14.4,9.6,26.6,22.7,30.6l5.9,9.5c1.5,2.4,2.3,5.2,2.3,8.1c0,5.4-2.8,10.4-7.5,13.2
			c-0.1,0-0.1,0.1-0.2,0.1c0,0,0,0,0,0c-0.1,0-0.1,0.1-0.2,0.1C424,417.6,415,415.3,410.6,408.3z M440,368c-8.8,0-16-7.2-16-16
			s7.2-16,16-16s16,7.2,16,16S448.8,368,440,368z"></path>
    <path d="M400,424H112c-4.4,0-8,3.6-8,8v64c0,4.4,3.6,8,8,8h288c4.4,0,8-3.6,8-8v-64C408,427.6,404.4,424,400,424z M392,488h-16
			v-16c0-4.4-3.6-8-8-8s-8,3.6-8,8v16h-16v-16c0-4.4-3.6-8-8-8s-8,3.6-8,8v16h-16v-24c0-4.4-3.6-8-8-8s-8,3.6-8,8v24h-16v-16
			c0-4.4-3.6-8-8-8s-8,3.6-8,8v16h-16v-16c0-4.4-3.6-8-8-8s-8,3.6-8,8v16h-16v-16c0-4.4-3.6-8-8-8s-8,3.6-8,8v16h-16v-24
			c0-4.4-3.6-8-8-8s-8,3.6-8,8v24h-16v-16c0-4.4-3.6-8-8-8s-8,3.6-8,8v16h-16v-48h272V488z"></path>
  </g>
  <g display="none">
    <linearGradient id="a" x1="93.863" x2="418.137" y1="489.177" y2="164.903" gradientUnits="userSpaceOnUse">
      <stop offset="0" stop-color="#12c2e9"></stop>
      <stop offset=".548" stop-color="#c471ed"></stop>
      <stop offset="1" stop-color="#f64f59"></stop>
    </linearGradient>
    <path fill="url(#a)" d="M256,184c17.6,0,32-14.4,32-32s-14.4-32-32-32s-32,14.4-32,32S238.4,184,256,184z
		 M256,136c8.8,0,16,7.2,16,16s-7.2,16-16,16s-16-7.2-16-16S247.2,136,256,136z M472,352c0-17.6-14.4-32-32-32
		c-9.2,0-17.4,3.9-23.3,10.1l-98.1-156.9c0.9-4.2,1.4-8.6,1.4-13.1V88c0-4.4-3.6-8-8-8h-24V48c0-17.6-14.4-32-32-32s-32,14.4-32,32
		v32h-24c-4.4,0-8,3.6-8,8v72c0,4.5,0.5,8.9,1.4,13.1L61.8,383.6c-3.1,5-4.8,10.7-4.8,16.6c0,8.3,3.4,16.3,9.1,22.1l-8.8,13.3
		c-2.5,3.7-1.5,8.6,2.2,11.1c1.4,0.9,2.9,1.3,4.4,1.3c2.6,0,5.1-1.3,6.7-3.6l9.4-14c2.8,0.8,5.6,1.2,8.3,1.2
		c10.5,0,20.6-5.2,26.6-14.7l36.1-57.7c28.7,26.5,65.6,40.9,105,40.9s76.3-14.5,105-40.9l36.1,57.7c5.9,9.5,16.1,14.7,26.6,14.7
		c2.8,0,5.6-0.4,8.3-1.2l9.3,14c1.5,2.3,4.1,3.6,6.7,3.6c1.5,0,3.1-0.4,4.4-1.3c3.7-2.5,4.7-7.4,2.2-11.1l-8.8-13.3
		c5.8-5.8,9.1-13.8,9.1-22.1c0-5.9-1.6-11.6-4.8-16.6l-0.7-1.1C462.5,378.5,472,366.3,472,352z M240,48c0-8.8,7.2-16,16-16
		s16,7.2,16,16v32h-32V48z M208,96h24h48h24v64c0,26.5-21.5,48-48,48s-48-21.5-48-48V96z M248,280c0-4.4,3.6-8,8-8s8,3.6,8,8v16
		c0,4.4-3.6,8-8,8s-8-3.6-8-8V280z M256,256c-13.2,0-24,10.8-24,24h-31.6l36.8-58.8c5.9,1.8,12.3,2.8,18.8,2.8
		c6.5,0,12.9-1,18.8-2.8l36.8,58.8H280C280,266.8,269.2,256,256,256z M101.4,408.3c-4.3,6.9-13.3,9.3-20.6,5.2
		c-0.1-0.1-0.2-0.1-0.3-0.2c-4.7-2.8-7.4-7.7-7.4-13.2c0-2.9,0.8-5.7,2.3-8.1l125.2-200.2c5.3,9.2,12.9,17.1,22,22.6L101.4,408.3z
		 M256,384c-36.4,0-70.3-13.7-96.3-38.7l30.8-49.3H232c0,13.2,10.8,24,24,24s24-10.8,24-24h41.6l30.8,49.3
		C326.3,370.3,292.4,384,256,384z M410.6,408.3L289.5,214.5c9.1-5.6,16.6-13.4,22-22.6l96.9,155.1c-0.3,1.6-0.4,3.3-0.4,5.1
		c0,14.4,9.6,26.6,22.7,30.6l5.9,9.5c1.5,2.4,2.3,5.2,2.3,8.1c0,5.4-2.8,10.4-7.5,13.2c-0.1,0-0.1,0.1-0.2,0.1c0,0,0,0,0,0
		c-0.1,0-0.1,0.1-0.2,0.1C424,417.6,415,415.3,410.6,408.3z M440,368c-8.8,0-16-7.2-16-16s7.2-16,16-16s16,7.2,16,16
		S448.8,368,440,368z M400,424H112c-4.4,0-8,3.6-8,8v64c0,4.4,3.6,8,8,8h288c4.4,0,8-3.6,8-8v-64C408,427.6,404.4,424,400,424z
		 M392,488h-16v-16c0-4.4-3.6-8-8-8s-8,3.6-8,8v16h-16v-16c0-4.4-3.6-8-8-8s-8,3.6-8,8v16h-16v-24c0-4.4-3.6-8-8-8s-8,3.6-8,8v24
		h-16v-16c0-4.4-3.6-8-8-8s-8,3.6-8,8v16h-16v-16c0-4.4-3.6-8-8-8s-8,3.6-8,8v16h-16v-16c0-4.4-3.6-8-8-8s-8,3.6-8,8v16h-16v-24
		c0-4.4-3.6-8-8-8s-8,3.6-8,8v24h-16v-16c0-4.4-3.6-8-8-8s-8,3.6-8,8v16h-16v-48h272V488z"></path>
  </g>
  <g display="none">
    <path d="M272 48c0-8.8-7.2-16-16-16s-16 7.2-16 16v32h32V48zM256 208c26.5 0 48-21.5 48-48V96h-24-48-24v64C208 186.5 229.5 208 256 208zM256 120c17.6 0 32 14.4 32 32s-14.4 32-32 32-32-14.4-32-32S238.4 120 256 120z"></path>
    <circle cx="440" cy="352" r="16"></circle>
    <path d="M256,224c-6.5,0-12.9-1-18.8-2.8L200.4,280H232c0-13.2,10.8-24,24-24s24,10.8,24,24h31.6l-36.8-58.8
			C268.9,223,262.5,224,256,224z"></path>
    <circle cx="256" cy="152" r="16"></circle>
    <path d="M232 296h-41.6l-30.8 49.3c26 25 60 38.7 96.3 38.7 36.4 0 70.3-13.7 96.3-38.7L321.6 296H280c0 13.2-10.8 24-24 24S232 309.2 232 296zM439 400.2c0-2.9-.8-5.7-2.3-8.1l-5.9-9.5c-13.1-4-22.7-16.2-22.7-30.6 0-1.7.1-3.4.4-5.1l-96.9-155.1c-5.3 9.2-12.9 17.1-22 22.6l121.1 193.8c4.3 6.9 13.3 9.2 20.5 5.2.1 0 .1-.1.2-.1 0 0 0 0 0 0 .1 0 .1-.1.2-.1C436.2 410.6 439 405.6 439 400.2zM200.5 191.9L75.4 392.1c-1.5 2.4-2.3 5.2-2.3 8.1 0 5.4 2.8 10.4 7.4 13.2.1.1.2.1.3.2 7.2 4 16.2 1.7 20.6-5.2l121.1-193.8C213.4 208.9 205.9 201.1 200.5 191.9z"></path>
    <path d="M264 296v-16c0-4.4-3.6-8-8-8s-8 3.6-8 8v16c0 4.4 3.6 8 8 8S264 300.4 264 296zM120 488h16v-16c0-4.4 3.6-8 8-8s8 3.6 8 8v16h16v-24c0-4.4 3.6-8 8-8s8 3.6 8 8v24h16v-16c0-4.4 3.6-8 8-8s8 3.6 8 8v16h16v-16c0-4.4 3.6-8 8-8s8 3.6 8 8v16h16v-16c0-4.4 3.6-8 8-8s8 3.6 8 8v16h16v-24c0-4.4 3.6-8 8-8s8 3.6 8 8v24h16v-16c0-4.4 3.6-8 8-8s8 3.6 8 8v16h16v-16c0-4.4 3.6-8 8-8s8 3.6 8 8v16h16v-64H120V488zM76.4 417.3c-3.7-2.5-8.6-1.5-11.1 2.2l-16 24c-2.5 3.7-1.5 8.6 2.2 11.1 1.4.9 2.9 1.3 4.4 1.3 2.6 0 5.1-1.3 6.7-3.6l16-24C81.1 424.8 80.1 419.8 76.4 417.3zM462.7 443.6l-16-24c-2.4-3.7-7.4-4.7-11.1-2.2-3.7 2.5-4.7 7.4-2.2 11.1l16 24c1.5 2.3 4.1 3.6 6.7 3.6 1.5 0 3.1-.4 4.4-1.3C464.1 452.2 465.1 447.2 462.7 443.6z"></path>
  </g>
  <path fill="#1F4256" d="M56 456c-1.5 0-3.1-.4-4.4-1.3-3.7-2.5-4.7-7.4-2.2-11.1l16-24c2.4-3.7 7.4-4.7 11.1-2.2 3.7 2.5 4.7 7.4 2.2 11.1l-16 24C61.1 454.8 58.6 456 56 456zM456 456c-2.6 0-5.1-1.3-6.7-3.6l-16-24c-2.5-3.7-1.5-8.6 2.2-11.1 3.7-2.5 8.6-1.5 11.1 2.2l16 24c2.5 3.7 1.5 8.6-2.2 11.1C459.1 455.6 457.5 456 456 456z"></path>
  <path fill="#EA7780" d="M352,296H160c-4.4,0-8-3.6-8-8s3.6-8,8-8h192c4.4,0,8,3.6,8,8S356.4,296,352,296z"></path>
  <path fill="#1F4256" d="M256,400c-51.2,0-99-25.2-128-67.5c-2.5-3.6-1.6-8.6,2.1-11.1c3.6-2.5,8.6-1.6,11.1,2.1
				c26,37.9,68.9,60.5,114.9,60.5s88.8-22.6,114.9-60.5c2.5-3.6,7.5-4.6,11.1-2.1c3.6,2.5,4.6,7.5,2.1,11.1
				C355,374.8,307.2,400,256,400z"></path>
  <path fill="#5CA1C4" d="M69.5 429.7L69.5 429.7c-10.6-6.6-13.9-20.5-7.3-31.2l155.3-249.8 38.4 23.9L100.7 422.4C94.1 433.1 80.2 436.3 69.5 429.7zM442.5 429.7L442.5 429.7c10.6-6.6 13.9-20.5 7.3-31.2L294.4 148.7 256 172.6l155.3 249.8C417.9 433.1 431.8 436.3 442.5 429.7z"></path>
  <path fill="#EA7780" d="M280,88h-48V48c0-13.3,10.7-24,24-24l0,0c13.3,0,24,10.7,24,24V88z"></path>
  <path fill="#1F4256" d="M256,216L256,216c-30.9,0-56-25.1-56-56V88h112v72C312,190.9,286.9,216,256,216z"></path>
  <circle cx="256" cy="152" r="24" fill="#EA7780"></circle>
  <path fill="#1F4256" d="M256,312L256,312c-8.8,0-16-7.2-16-16v-16c0-8.8,7.2-16,16-16l0,0c8.8,0,16,7.2,16,16v16
		C272,304.8,264.8,312,256,312z"></path>
  <circle cx="440" cy="352" r="24" fill="#EA7780"></circle>
  <rect width="288" height="64" x="112" y="432" fill="#EECC6E"></rect>
  <path fill="#1F4256" d="M144 464c-4.4 0-8 3.6-8 8v24h16v-24C152 467.6 148.4 464 144 464zM208 464c-4.4 0-8 3.6-8 8v24h16v-24C216 467.6 212.4 464 208 464zM336 464c-4.4 0-8 3.6-8 8v24h16v-24C344 467.6 340.4 464 336 464zM368 464c-4.4 0-8 3.6-8 8v24h16v-24C376 467.6 372.4 464 368 464zM240 464c-4.4 0-8 3.6-8 8v24h16v-24C248 467.6 244.4 464 240 464zM272 464c-4.4 0-8 3.6-8 8v24h16v-24C280 467.6 276.4 464 272 464zM176 456c-4.4 0-8 3.6-8 8v32h16v-32C184 459.6 180.4 456 176 456zM304 456c-4.4 0-8 3.6-8 8v32h16v-32C312 459.6 308.4 456 304 456z"></path>
  <g display="none">
    <path fill="#EA7780" d="M352,296H160c-4.4,0-8-3.6-8-8s3.6-8,8-8h192c4.4,0,8,3.6,8,8S356.4,296,352,296z"></path>
    <path fill="#1F4256" d="M256,400c-51.2,0-99-25.2-128-67.5c-2.5-3.6-1.6-8.6,2.1-11.1c3.6-2.5,8.6-1.6,11.1,2.1
				c26,37.9,68.9,60.5,114.9,60.5s88.8-22.6,114.9-60.5c2.5-3.6,7.5-4.6,11.1-2.1c3.6,2.5,4.6,7.5,2.1,11.1
				C355,374.8,307.2,400,256,400z"></path>
    <path fill="#5CA1C4" d="M75 420.9L75 420.9c-10.6-6.6-14-20.3-7.7-30.5l150.2-241.6 38.4 23.9L105.8 414.3C99.4 424.5 85.6 427.5 75 420.9zM433.4 415.1L433.4 415.1c10.6-6.6 14.2-20.1 7.9-30.1L294.4 148.7 256 172.6l146.9 236.3C409.1 418.9 422.8 421.7 433.4 415.1z"></path>
    <path fill="#EA7780" d="M280,88h-48V48c0-13.3,10.7-24,24-24l0,0c13.3,0,24,10.7,24,24V88z"></path>
    <path fill="#1F4256" d="M256,216L256,216c-30.9,0-56-25.1-56-56V88h112v72C312,190.9,286.9,216,256,216z"></path>
    <circle cx="256" cy="152" r="24" fill="#EA7780"></circle>
    <path fill="#1F4256" d="M256,312L256,312c-8.8,0-16-7.2-16-16v-16c0-8.8,7.2-16,16-16l0,0c8.8,0,16,7.2,16,16v16
		C272,304.8,264.8,312,256,312z"></path>
    <circle cx="440" cy="352" r="24" fill="#EA7780"></circle>
    <rect width="288" height="64" x="112" y="432" fill="#EECC6E"></rect>
    <path fill="#1F4256" d="M144 464c-4.4 0-8 3.6-8 8v24h16v-24C152 467.6 148.4 464 144 464zM208 464c-4.4 0-8 3.6-8 8v24h16v-24C216 467.6 212.4 464 208 464zM336 464c-4.4 0-8 3.6-8 8v24h16v-24C344 467.6 340.4 464 336 464zM368 464c-4.4 0-8 3.6-8 8v24h16v-24C376 467.6 372.4 464 368 464zM240 464c-4.4 0-8 3.6-8 8v24h16v-24C248 467.6 244.4 464 240 464zM272 464c-4.4 0-8 3.6-8 8v24h16v-24C280 467.6 276.4 464 272 464zM176 456c-4.4 0-8 3.6-8 8v32h16v-32C184 459.6 180.4 456 176 456zM304 456c-4.4 0-8 3.6-8 8v32h16v-32C312 459.6 308.4 456 304 456z"></path>
    <path d="M256,184c17.6,0,32-14.4,32-32s-14.4-32-32-32s-32,14.4-32,32S238.4,184,256,184z M256,136c8.8,0,16,7.2,16,16
			s-7.2,16-16,16s-16-7.2-16-16S247.2,136,256,136z"></path>
    <path d="M472,352c0-17.6-14.4-32-32-32c-9.2,0-17.4,3.9-23.3,10.1l-98.1-156.9c0.9-4.2,1.4-8.6,1.4-13.1V88c0-4.4-3.6-8-8-8h-24
			V48c0-17.6-14.4-32-32-32s-32,14.4-32,32v32h-24c-4.4,0-8,3.6-8,8v72c0,4.5,0.5,8.9,1.4,13.1L61.8,383.6c-3.1,5-4.8,10.7-4.8,16.6
			c0,8.3,3.4,16.3,9.1,22.1l-8.8,13.3c-2.5,3.7-1.5,8.6,2.2,11.1c1.4,0.9,2.9,1.3,4.4,1.3c2.6,0,5.1-1.3,6.7-3.6l9.4-14
			c2.8,0.8,5.6,1.2,8.3,1.2c10.5,0,20.6-5.2,26.6-14.7l36.1-57.7c28.7,26.5,65.6,40.9,105,40.9s76.3-14.5,105-40.9l36.1,57.7
			c5.9,9.5,16.1,14.7,26.6,14.7c2.8,0,5.6-0.4,8.3-1.2l9.3,14c1.5,2.3,4.1,3.6,6.7,3.6c1.5,0,3.1-0.4,4.4-1.3
			c3.7-2.5,4.7-7.4,2.2-11.1l-8.8-13.3c5.8-5.8,9.1-13.8,9.1-22.1c0-5.9-1.6-11.6-4.8-16.6l-0.7-1.1C462.5,378.5,472,366.3,472,352z
			 M240,48c0-8.8,7.2-16,16-16s16,7.2,16,16v32h-32V48z M208,96h24h48h24v64c0,26.5-21.5,48-48,48s-48-21.5-48-48V96z M248,280
			c0-4.4,3.6-8,8-8s8,3.6,8,8v16c0,4.4-3.6,8-8,8s-8-3.6-8-8V280z M256,256c-13.2,0-24,10.8-24,24h-31.6l36.8-58.8
			c5.9,1.8,12.3,2.8,18.8,2.8c6.5,0,12.9-1,18.8-2.8l36.8,58.8H280C280,266.8,269.2,256,256,256z M101.4,408.3
			c-4.3,6.9-13.3,9.3-20.6,5.2c-0.1-0.1-0.2-0.1-0.3-0.2c-4.7-2.8-7.4-7.7-7.4-13.2c0-2.9,0.8-5.7,2.3-8.1l125.2-200.2
			c5.3,9.2,12.9,17.1,22,22.6L101.4,408.3z M256,384c-36.4,0-70.3-13.7-96.3-38.7l30.8-49.3H232c0,13.2,10.8,24,24,24s24-10.8,24-24
			h41.6l30.8,49.3C326.3,370.3,292.4,384,256,384z M410.6,408.3L289.5,214.5c9.1-5.6,16.6-13.4,22-22.6l96.9,155.1
			c-0.3,1.6-0.4,3.3-0.4,5.1c0,14.4,9.6,26.6,22.7,30.6l5.9,9.5c1.5,2.4,2.3,5.2,2.3,8.1c0,5.4-2.8,10.4-7.5,13.2
			c-0.1,0-0.1,0.1-0.2,0.1c0,0,0,0,0,0c-0.1,0-0.1,0.1-0.2,0.1C424,417.6,415,415.3,410.6,408.3z M440,368c-8.8,0-16-7.2-16-16
			s7.2-16,16-16s16,7.2,16,16S448.8,368,440,368z"></path>
    <path d="M400,424H112c-4.4,0-8,3.6-8,8v64c0,4.4,3.6,8,8,8h288c4.4,0,8-3.6,8-8v-64C408,427.6,404.4,424,400,424z M392,488h-16
			v-16c0-4.4-3.6-8-8-8s-8,3.6-8,8v16h-16v-16c0-4.4-3.6-8-8-8s-8,3.6-8,8v16h-16v-24c0-4.4-3.6-8-8-8s-8,3.6-8,8v24h-16v-16
			c0-4.4-3.6-8-8-8s-8,3.6-8,8v16h-16v-16c0-4.4-3.6-8-8-8s-8,3.6-8,8v16h-16v-16c0-4.4-3.6-8-8-8s-8,3.6-8,8v16h-16v-24
			c0-4.4-3.6-8-8-8s-8,3.6-8,8v24h-16v-16c0-4.4-3.6-8-8-8s-8,3.6-8,8v16h-16v-48h272V488z"></path>
  </g>
</svg>
