<svg width="587" height="587" viewBox="0 0 587 587" fill="none" xmlns="http://www.w3.org/2000/svg">
<path d="M293.5 0L547.678 146.75V440.25L293.5 587L39.3215 440.25V146.75L293.5 0Z" fill="#F4F4F4"/>
<path fill-rule="evenodd" clip-rule="evenodd" d="M167 158H124L130 355H161L167 158ZM138 183H152L150.047 338H139.953L138 183Z" fill="black"/>
<circle cx="146.5" cy="406.5" r="22.5" fill="black"/>
<path d="M439 158H485L384 273L502 429H409.4L336.9 334.2L253.9 429H207.9L314.9 306L201.9 158H296.8L362.3 244.6L439 158ZM422.9 402H448.4L283.4 184H256L422.9 402Z" fill="black"/>
</svg>
