<svg xmlns="http://www.w3.org/2000/svg" width="400" height="400" id="sad">
  <circle cx="200" cy="200" r="164.108" fill="#FFBE55"></circle>
  <path fill="#0B4870" d="M199.998 211.706c46.023 0 82.104 25.613 96.516 68.518 1.861 5.539-1.123 11.539-6.661 13.399-5.539 1.861-11.54-1.121-13.4-6.661-5.464-16.264-23.847-54.094-76.454-54.094-19.939 0-36.993 5.455-50.684 16.212-11.869 9.324-20.765 22.382-25.728 37.762-1.795 5.562-7.756 8.615-13.319 6.821-5.562-1.795-8.616-7.758-6.821-13.319 6.261-19.404 17.602-35.97 32.793-47.905 17.511-13.757 38.962-20.733 63.758-20.733z"></path>
  <circle cx="129.757" cy="154.616" r="19.892" fill="#0B4870"></circle>
  <circle cx="270.243" cy="154.616" r="19.893" fill="#0B4870"></circle>
</svg>
